<svg id="Layer_1" xmlns="http://www.w3.org/2000/svg" viewBox="0 0 710 591.6">
    <style>
        .st0{fill:#918cac}.st1{fill:#0b0146}.st2{fill:#fff}.st3{fill:#0a0540}.st4{fill:#adafbc}.st5{fill:#4747a1}.st6{fill:#00b5aa}.st7{fill:#fcfbf8}.st8{fill:#2a337e}.st9{fill:#9b4065}.st10{fill:#ffb3b3}.st11{fill:#0a0343}.st12{fill:#916382}.st13{fill:#e59880}.st14{fill:#e1e4ff}.st15{fill:#4844a3}.st16{fill:#f8f9ff}.st17{fill:#b5bcec}.st18{fill:#c7ccff}.st19{fill:#808bda}.st20{fill:#141268}.st21{fill:#7270ac}.st22{fill:#4b4d97}.st23{fill:#100a59}.st24{fill:#2c2679}.st25{fill:#727cda}.st26{fill:#1c1e62}.st27{fill:#176e92}
    </style>
    <title>
        4_1-supervised learning
    </title>
    <path class="st0" d="M539.6 273.3H216.5c.3 3.6.7 7.2 1.1 10.8h315.6c1.6-4 3.8-7.6 6.4-10.8"/>
    <path class="st1" d="M179.5 28.2v235.3c0 5.4 4.4 9.9 9.9 9.9h382.1c5.4 0 9.9-4.4 9.9-9.9V28.2c0-5.4-4.4-9.9-9.9-9.9H189.4c-5.5 0-9.9 4.4-9.9 9.9"/>
    <path class="st2" d="M291.2 251c-25.8 0-46.7-21-46.7-46.7 0-25.8 21-46.7 46.7-46.7s46.7 21 46.7 46.7C338 230 317 251 291.2 251m0-91c-24.4 0-44.3 19.9-44.3 44.3s19.9 44.3 44.3 44.3 44.3-19.9 44.3-44.3c0-24.5-19.8-44.3-44.3-44.3M351.5 63.4H251.3c-.7 0-1.2-.6-1.2-1.2 0-.7.6-1.2 1.2-1.2h100.1c.7 0 1.2.6 1.2 1.2.1.7-.5 1.2-1.1 1.2M331.2 80.4h-79.8c-.7 0-1.2-.6-1.2-1.2 0-.7.6-1.2 1.2-1.2h79.8c.7 0 1.2.6 1.2 1.2s-.6 1.2-1.2 1.2M341.7 96.6h-90.4c-.7 0-1.3-.6-1.3-1.3s.6-1.3 1.3-1.3h90.4c.7 0 1.3.6 1.3 1.3s-.5 1.3-1.3 1.3M494.1 184.6H396c-.7 0-1.2-.6-1.2-1.2 0-.7.6-1.2 1.2-1.2h98.1c.7 0 1.2.6 1.2 1.2.1.7-.5 1.2-1.2 1.2M486.4 212.1H396c-.7 0-1.2-.6-1.2-1.2 0-.7.6-1.2 1.2-1.2h90.4c.7 0 1.2.6 1.2 1.2s-.5 1.2-1.2 1.2M486.4 198.5H396c-.7 0-1.3-.6-1.3-1.3s.6-1.3 1.3-1.3h90.4c.7 0 1.3.6 1.3 1.3s-.6 1.3-1.3 1.3M461.7 114c-20.3 0-36.8-16.5-36.8-36.8s16.5-36.8 36.8-36.8 36.8 16.5 36.8 36.8S482 114 461.7 114zm0-71.2c-18.9 0-34.3 15.4-34.3 34.3s15.4 34.3 34.3 34.3S496 96 496 77.1s-15.3-34.3-34.3-34.3z"/>
    <path class="st3" d="M208.9 48.8c-.3 0-.7.3-1.1.9v1.8c0 1.5 0 3-.1 4.5l1.7-.1.1 2.5-2 .1-.3 3c.3.6.7.9 1 1 .9 0 2.4-2.6 2.5-6.7.1-1.9-.1-3.7-.6-5.1-.3-1.4-.8-1.8-1.2-1.9"/>
    <path class="st3" d="M291.2 160c-14.7 0-27.8 7.2-35.8 18.3 2.2 1.8 4.6 3.4 7.1 4.7l56.8 19.4-.7 1.1c-6.7 11.3-10.9 23.9-12.3 36.9l-34.7 3.5c5.9 2.9 12.6 4.6 19.6 4.6 24.4 0 44.3-19.9 44.3-44.3S315.7 160 291.2 160M396 212.1c-.7 0-1.2-.6-1.2-1.2 0-.7.6-1.2 1.2-1.2h90.4c.7 0 1.2.6 1.2 1.2 0 .7-.6 1.2-1.2 1.2H396M202.7 26.6c3 6.2 4.7 13.3 5.1 20.9.4-.2.7-.3 1.2-.3h.1c1.2.1 2.2 1.1 2.8 2.9.5 1.6.8 3.6.7 5.7-.2 4.1-1.7 8.2-4.2 8.2h-.1c-.4 0-.8-.2-1.2-.4-2.4 16.7-10.1 26-20.7 30.8-.5.2-1 .5-1.5.8h.7c3.7 0 7.4.6 10.9 1.7 10.1 3.4 17.2 10.8 23.9 21 8.9 15.8 16.2 43.3 33.2 58.6 8.5-11.6 22.2-19.2 37.7-19.2 25.8 0 46.7 21 46.7 46.7 0 25.8-21 46.7-46.7 46.7-8.7 0-16.9-2.4-24-6.6-1.9.2-3.7.3-5.6.3-3.5 0-7.1-.3-10.5-1-9.4-1.8-13.9-5.2-22.3-10.7-3.2-2.1-6.2-4.6-8.8-7.4l-7.2-7.7.1.1.8 8 .4.1-.4.1 2.5 23.9-.1-.1 1.2 11.8c.2 1.4-.4 2.7-1.6 3.7 0 .3.1.6.1 1 .2 2.3.4 4.6.6 7h323.2c1-1.2 2-2.3 3.1-3.3 2.1-2.6 4.6-4.8 7.5-6.5-3.5-1.6-6.7-3.5-9.8-5.6-10.3-7.3-18-17.7-22-29.6-.5-1.6-1-3.3-1.4-4.9l-39.7-24.8H396c-.7 0-1.3-.6-1.3-1.3s.6-1.3 1.3-1.3h77.3l-17.9-11.2H396c-.7 0-1.2-.6-1.2-1.2 0-.7.6-1.2 1.2-1.2h55.4L314.6 96.6h-63.3c-.7 0-1.3-.6-1.3-1.3s.6-1.3 1.3-1.3h59.1l-21.8-13.6h-37.3c-.7 0-1.2-.6-1.2-1.2 0-.7.6-1.2 1.2-1.2h33.4l-23.2-14.5h-10.2c-.7 0-1.2-.6-1.2-1.2 0-.7.6-1.2 1.2-1.2h6.2l-54.8-34.5"/>
    <path class="st4" d="M291.2 157.5c-15.5 0-29.2 7.6-37.7 19.2.6.6 1.2 1.1 1.9 1.6 8.1-11.1 21.1-18.3 35.8-18.3 24.4 0 44.3 19.9 44.3 44.3s-19.9 44.3-44.3 44.3c-7 0-13.7-1.7-19.6-4.6l-3 .3c-.4 0-.9.1-1.3.1 7 4.2 15.2 6.6 24 6.6 25.8 0 46.7-21 46.7-46.7 0-25.8-21-46.8-46.8-46.8M257.6 60.9h-6.2c-.7 0-1.2.6-1.2 1.2 0 .7.6 1.2 1.2 1.2h10.2l-4-2.4M284.7 77.9h-33.4c-.7 0-1.2.6-1.2 1.2 0 .7.6 1.2 1.2 1.2h37.3l-3.9-2.4M310.4 94h-59.1c-.7 0-1.3.6-1.3 1.3s.6 1.3 1.3 1.3h63.3l-4.2-2.6M451.4 182.2H396c-.7 0-1.2.6-1.2 1.2 0 .7.6 1.2 1.2 1.2h59.4l-4-2.4M486.4 209.6H396c-.7 0-1.2.6-1.2 1.2 0 .7.6 1.2 1.2 1.2h90.4c.7 0 1.2-.6 1.2-1.2s-.5-1.2-1.2-1.2M473.3 195.9H396c-.7 0-1.3.6-1.3 1.3s.6 1.3 1.3 1.3h81.5l-4.2-2.6"/>
    <path class="st5" d="M306.3 240.4s10.9-16.5 13-27.1c2-10.6-14.2-9.1-14.2-9.1s-8.3 13-8.6 14.4 2.8 18.1 2.8 18.1l2.6 4.1 4.4-.4z"/>
    <path class="st6" d="M109.4 110.3L95.2 205c-.1.6-.2 1.3-.3 1.9-3.5 22.3 6.9 44.5 25.8 56.8l17.6 11.4-28.9-164.8z"/>
    <path class="st7" d="M209.1 576.5h39l-3.6-49.1-39.5 9.9zM98.6 544.8l13.2 15.9 37.9 2.9-6.7-29.3-43.4-5.5 2 7.2z"/>
    <path class="st1" d="M91.6 571.4l2.9-21.2v-.2l1.2-7.3c.2-.7.8-3 1.9-1.7 5.7 6 12 10.9 22.2 11.8 11.2.9 21.2-3.2 25.3-9.8h.3l1.4.9c7.9 5 16.5 8.7 25.5 11.5 8.2 2.5 14.8 6.3 14.3 11.4l.3 6.3c.1 2.1-1.3 3.9-3.5 4.5-.9.2-1.5.4-1.6.4l-33.6 10h-.2c-9.4 1.7-16.6 3.6-22.1 2.9l-18.1-1.6h-.2c-17.4-2.8-17-7.8-16-17.9zM190.8 571.8l2.5-22.1v-.2l1.1-7.6c.2-.7.8-3.2 2-1.8 6.1 6.2 12.8 11.1 23.4 11.8 11.7.7 21.9-3.7 26-10.6h.3l1.5.9c8.3 5 17.4 7.4 26.7 10.2 8.5 2.5 15.5 6.3 15.2 11.5l.4 6.6c.1 2.1-1.3 4.1-3.5 4.8-.9.3-1.6.5-1.6.5l-24.4 8.7c-7.3 2-14.5 4-21.8 6-4.4.9-8.2 1.4-11.4 1.1l-18.8-1.3h-.2c-18.5-2.8-18.2-8-17.4-18.5z"/>
    <path class="st8" d="M173.3 230c-1.2 26.4 0 53-2.7 79.3-2.9 29-4.5 55.8-5.5 82.1-1.7 43.1-.4 84.8-2.7 131.5l-.9 15.8c.1 2.2-1.7 4.1-3.8 4l-.5.1c-25.4 3.4-39.6 3.8-64.9-.6l-2.4-.4c-2.6-.4-2.1-.9-2-4.4l4.8-34.8c1-11.9 1-17.5 2.9-30.2C124 286.8 86.1 350.3 121.4 234"/>
    <path class="st8" d="M256.5 536.3l-.5.2c-24.3 8.4-38.1 11.6-63.7 12.3l-2.4.1c-2.6.1-2.2-.5-2.8-3.9l-5.6-23.6c-6.8-21.7-9.7-42.7-12.8-65.2-4.8-35-6.2-69.8-12.6-99.1h3.2c-2-11.7-2-14.9-7.7-25.2l-5.7-7.9c-15.3-19.7-15.3-39.2-11.9-59.6.1-.5.8-1.9.9-2.4.7-3.9.9-7.5 1.7-11.5l2.2-10.8L214 226l-6.2-1.2c3.7 26.2 5.7 15.2 7.9 41.6 6.5 76.7 29.8 175.1 40.1 249.8l3.5 15.4c.6 2.1-.7 4.3-2.8 4.7"/>
    <path class="st1" d="M158 375.3c-.6-7.1-1.6-14.4-4.9-20.8-1.3-2.5-2.9-4.8-4.6-7-4.3-4.2-6.5-7.7-10.3-11.8-4.1-4.5-7-9.4-9.3-14.5 7.6 39.7 34.5 173.6 34.6 171.7.1-1.9.7-57.5.9-75.8-2.8-13.8-5.1-27.9-6.4-41.8z"/>
    <path class="st9" d="M398.5 80.1c1 .3 1.5 1.3 1.2 2.3l-43.8 139.1c-.4 1.1-1.6 1.8-2.7 1.4l-2.5-.8c-1.1-.3-1.8-1.6-1.4-2.7v-.1l46.9-138.1c.3-.9 1.4-1.4 2.3-1.1z"/>
    <path class="st9" d="M387.7 113.8c1 .3 1.5 1.3 1.2 2.3l-43.8 139.1c-.4 1.1-1.6 1.8-2.7 1.4l-2.5-.8c-1.1-.3-1.8-1.6-1.4-2.7v-.1l46.9-138c.3-1 1.3-1.5 2.3-1.2z"/>
    <path class="st2" d="M208.3 64.1h-.1c-2.5-.1-3.7-4.4-3.5-8.6.2-4.2 1.8-8.4 4.3-8.2 1.2.1 2.2 1.1 2.8 2.9.5 1.6.8 3.6.7 5.7-.2 4-1.7 8.2-4.2 8.2m.6-15.3c-.9 0-2.4 2.6-2.5 6.7-.2 4.1 1 6.9 1.9 6.9.9 0 2.4-2.6 2.5-6.7.1-1.9-.1-3.7-.6-5.1-.4-1.3-.9-1.7-1.3-1.8"/>
    <path class="st10" d="M207.8 51.6c0-26.5-13.4-47.5-48.3-47.5-25.1 0-45.7 20.5-46.7 45.6-.9 21.6 12.8 40.2 32 46.9v20h34.9V105c0-4.5 2.5-8.6 6.6-10.5 13-5.9 21.5-18.4 21.5-42.9"/>
    <path class="st11" d="M209.5 55.9l-1.7.1c0 .8-.1 1.7-.1 2.5l2-.1-.2-2.5"/>
    <path class="st12" d="M207.7 56l-33.9 1.9.1 2.5 33.6-1.9c.2-.8.2-1.6.2-2.5"/>
    <path class="st13" d="M211.7 56h-37.8"/>
    <path class="st2" d="M173.9 55.1h37.7v1.8h-37.7z"/>
    <path class="st9" d="M207.3 32.7l-.5-1.8c-.7-2.2-1.4-4.2-2.2-6.1-4.5-11.6-15.3-19.4-27.5-22.2-5.3-1.7-11-2.6-16.8-2.6-26.3 0-47.6 23.1-47.6 49.4 0 6.1.7 12.5 2.2 18.5 3.3 13.2 13.2 23.8 26.1 27.8 4.4 1.4 3.9 2.1 8 2.5-1.6 1.8-2.4 3.7 5.7.5 1.5.3 2.1 1.8 3.1 1.1.3 0 .6.1 1 .1 2.2.4-6.7 11.2 3.4 6.6 3.3.8 5-2.4 6-6 .7-1.3-.1-2.5 1.5-2.6 22.7-1.5 12.5-29.7 20.3-34.7 8.4-5.3 8.8-19.4 15.9-26.6.3-.4 1.9-2.1 1.4-3.9z"/>
    <path class="st10" d="M372.2 209.1c-3.6-6.5-9.8-11.5-17.6-13.6-7.6-2-15.2-.7-21.5 2.9-7 4.1-15.2 5.7-23.1 4l-5.7-1.2-5.7 27.6 8.7 1.8c7.1 1.5 13.7 5.1 18.4 10.7 3.6 4.3 8.6 7.5 14.4 9.1 15.2 4 29.6-5.2 32.4-15.8.1-.5 1.1-3.4 1.4-5.3 1-6.6.4-13.4-1.7-19.8v-.4z"/>
    <path class="st6" d="M262.5 183c-23.6-12.4-31.9-46.6-42.2-64.9-6.7-10.2-13.7-17.6-23.9-21-6.3-2.1-13.1-2.2-19.6-.8l-9.9 1.7c-6.2.3-9.9 0-16.5-1-5.8-1-11.5-1.3-17.3-.8-8.6.8-10.9 2.3-17 6.1-13.4 8.4-11.5 32.4-7.9 101.3l2.5 62.3c0 2 1.4 3.7 3.3 4.1 31.4 6.7 66.8 7.4 96.7-2.8l3.1-1c2.5-.9 3.7-2.7 3.5-4.7l-4.6-43.9 7.2 7.7c2.6 2.8 5.6 5.3 8.8 7.4 8.4 5.5 12.9 9 22.3 10.7 5.7 1.1 11.6 1.2 17.4.6l37.7-3.8c1.4-13 5.6-25.6 12.3-36.9l.7-1.1-56.6-19.2"/>
    <path class="st14" d="M635 215.4c2.8-32.3-21.6-60.9-54.5-63.7-24.1-2.1-46 10.1-57.2 29.4-4.1 7.1-6.8 15.2-7.5 23.9-.7 8.1.3 15.9 2.7 23.2 4 11.9 11.7 22.3 22 29.6 8.5 6 18.6 9.9 29.8 10.9 11.4 1 22.2-1.2 31.7-5.8 18.1-8.7 31.2-26.3 33-47.5"/>
    <path class="st15" d="M562.4 195.4c8.9 1.1 15.2 9.2 14.1 18-1.1 8.9-9.2 15.1-18.1 14.1-8.9-1.1-15.2-9.2-14.1-18 1.1-8.9 9.2-15.2 18.1-14.1"/>
    <path class="st16" d="M559.5 202c5.3.7 9.1 5.5 8.5 10.8-.7 5.3-5.5 9.1-10.8 8.4-5.3-.7-9.1-5.5-8.5-10.8.6-5.3 5.5-9.1 10.8-8.4"/>
    <path class="st15" d="M561.2 260.1c-14.7 1.3-25.5 14.2-24.3 28.9l5.3 60.3c1.3 14.7 14.2 25.5 28.9 24.3 14.7-1.3 25.5-14.2 24.3-28.9l-5.3-60.3c-1.2-14.8-14.2-25.6-28.9-24.3"/>
    <path class="st15" d="M574.4 336.6c-11.2-5.1-24.4-.1-29.4 11.1l-.1.2c-11.3 25.5-18.9 42.6-22.8 51.4-.7 1.5-1.3 2.9-2 4.3-4.9 10.5-.4 22.9 10.1 27.8l.2.1c11.3 5.1 24.7.2 29.9-11.1l25.1-54.1c5.2-11.2.3-24.4-10.8-29.6l-.2-.1"/>
    <path class="st14" d="M563.9 320.6c-15.4 2.4-25.9 16.8-23.4 32.2 2.4 15.3 16.9 25.8 32.2 23.3 15.4-2.4 25.9-16.8 23.4-32.2-2.4-15.3-16.8-25.7-32.2-23.3"/>
    <path class="st15" d="M534.2 566.1h93c3.8 0 6.8-3 6.8-6.8v-2.8c0-3.8-3-6.8-6.8-6.8h-93c-3.8 0-6.8 3-6.8 6.8v2.8c0 3.7 3 6.8 6.8 6.8z"/>
    <path class="st17" d="M611.6 549.7h-50.3c-3.8 0-6.8-3.1-6.8-6.8V540c0-3.8 3.1-6.8 6.8-6.8h50.3c3.8 0 6.8 3.1 6.8 6.8v2.8c.1 3.8-3 6.9-6.8 6.9z"/>
    <ellipse class="st2" cx="520.9" cy="206" rx="4" ry="7.9"/>
    <path class="st1" d="M520.9 213.9c-2.2 0-4-3.5-4-7.9s1.8-7.9 4-7.9"/>
    <path class="st18" d="M565.6 533.2c-1.9 0-3.7-.9-4.6-2.3-1.2-1.8-2.6-4.2-2.6-6.3-.4-15.6-3.9-31.3-3.9-44l1.6-14.1-10.3-128.9c0-4.3 4-7.8 9-7.8h56.1c1.5 0 3.8 4.9 6.2 11.7 8.8 24.7 11.2 51.1 7.5 77l-6.3 43.9c-.1 9.6-2.1 16.3-2.1 28.1l-.5 39.4c0 1.8-1.7 3.3-3.8 3.2h-46.3"/>
    <path class="st19" d="M590.1 400.4h-18.9c-22.6 0-41-18.4-41-41v-59.9c0-22.6 18.4-41 41-41h18.9c22.6 0 41 18.4 41 41l-.6 75.4c.1 22.6.7 25.5-40.4 25.5"/>
    <path class="st20" d="M565.4 393.2h59.2c3 0 5.4 2.4 5.4 5.4v2.2c0 3-2.4 5.4-5.4 5.4h-59.2c-3 0-5.4-2.4-5.4-5.4v-2.2c0-2.9 2.4-5.4 5.4-5.4"/>
    <path class="st21" d="M557.5 398c-1 8.4-2.4 16.9-4.8 25.5l.8 10 .4 5.2.3-.3c10.8-8.4 19-19.5 24.1-32.2h-12.9c-3 0-5.4-2.4-5.4-5.4v-2.1c-.9-.1-1.7-.4-2.5-.7"/>
    <path class="st22" d="M566.6 268.3c-1.7 2-3.1 4.3-4 6.7-3.6 9.5-2.1 20-1.2 30.1 1.6 18.2 1.1 36.6-.8 54.8-1.3 13.2-1.8 25.7-3.2 38.1.8.3 1.7.6 2.5.8v-.2c0-3 2.4-5.4 5.4-5.4h17.9c2-4 4.5-7.5 8.3-9.9 8.6-5.6 13.4-12.6 15.6-21.5.4-1.4.6-2.9.6-4.3.2-3.6-.5-7.2-1.8-10.6-2.3-5.9-5.4-11.6-7.1-17.1-3.8-12.3-6.2-24.9-7.7-37.7-5.2-9.2-12.5-16.9-20.8-23.4h-.1c-1.1 0-2.3-.2-3.6-.4"/>
    <path class="st23" d="M583.4 393.2h-17.9c-3 0-5.4 2.4-5.4 5.4V400.9c0 3 2.4 5.4 5.4 5.4h12.9c.7-1.8 1.4-3.6 2-5.4.8-2.7 1.8-5.3 3-7.7"/>
    <path class="st18" d="M635 215.4c2.8-32.3-21.6-60.9-54.5-63.7-24.1-2.1-46 10.1-57.2 29.4-4.1 7.1-6.8 15.2-7.5 23.9-.7 8.1.3 15.9 2.7 23.2 4 11.9 11.7 22.3 22 29.6 8.5 6 18.6 9.9 29.8 10.9 11.4 1 22.2-1.2 31.7-5.8 18.1-8.7 31.2-26.3 33-47.5"/>
    <path class="st21" d="M575.1 204.6c1.3 2.7 1.8 5.7 1.4 8.9-1 8.2-8 14.2-16.1 14.2-.7 0-1.3 0-2-.1-5-.6-9.2-3.4-11.7-7.3 2.3 4.8 7 8.5 12.7 9.2.7.1 1.3.1 2 .1 8.1 0 15.1-6 16.1-14.2.5-4-.4-7.7-2.4-10.8"/>
    <path class="st15" d="M562.4 195.4c8.9 1.1 15.2 9.2 14.1 18-1.1 8.9-9.2 15.1-18.1 14.1-8.9-1.1-15.2-9.2-14.1-18 1.1-8.9 9.2-15.2 18.1-14.1"/>
    <path class="st24" d="M559.7 204.2c-4.8 0-9 3.6-9.6 8.5-.7 5.3 3.1 10.2 8.5 10.8.4 0 .8.1 1.2.1 4.8 0 9-3.6 9.6-8.5.7-5.3-3.1-10.2-8.5-10.8-.4-.1-.8-.1-1.2-.1"/>
    <ellipse transform="rotate(-83.004 558.357 211.62)" class="st16" cx="558.3" cy="211.6" rx="9.7" ry="9.7"/>
    <path class="st20" d="M561.2 260.1c-14.7 1.3-25.5 14.2-24.3 28.9l5.3 60.3c1.3 14.7 14.2 25.5 28.9 24.3 14.7-1.3 25.5-14.2 24.3-28.9l-5.3-60.3c-1.2-14.8-14.2-25.6-28.9-24.3z"/>
    <path class="st20" d="M574.4 336.6c-11.2-5.1-24.4-.1-29.4 11.1l-.1.2c-11.3 25.5-18.9 42.6-22.8 51.4-.7 1.5-1.3 2.9-2 4.3-4.9 10.5-.4 22.9 10.1 27.8l.2.1c11.3 5.1 24.7.2 29.9-11.1l25.1-54.1c5.2-11.2.3-24.4-10.8-29.6l-.2-.1z"/>
    <ellipse transform="rotate(-8.996 568.448 348.412)" class="st14" cx="568.3" cy="348.4" rx="28.2" ry="28.1"/>
    <path class="st20" d="M534.2 566.1h93c3.8 0 6.8-3 6.8-6.8v-2.8c0-3.8-3-6.8-6.8-6.8h-93c-3.8 0-6.8 3-6.8 6.8v2.8c0 3.7 3 6.8 6.8 6.8z"/>
    <path class="st18" d="M565.1 533H609c3.8 0 6.8-3 6.8-6.8v-2.8c0-3.8-3-6.8-6.8-6.8h-43.9c-3.8 0-6.8 3-6.8 6.8v2.8c0 3.7 3.1 6.8 6.8 6.8z"/>
    <path class="st25" d="M611.6 549.7h-50.3c-3.8 0-6.8-3.1-6.8-6.8V540c0-3.8 3.1-6.8 6.8-6.8h50.3c3.8 0 6.8 3.1 6.8 6.8v2.8c.1 3.8-3 6.9-6.8 6.9z"/>
    <path class="st19" d="M613.9 483.4h-55.8c-4.6 0-8.3-3.7-8.3-8.3v-3.8c0-4.6 3.7-8.3 8.3-8.3h55.1c4.8 0 8.8 3.9 8.8 8.8v3.5c.1 4.4-3.6 8.1-8.1 8.1z"/>
    <ellipse class="st2" cx="520.9" cy="206" rx="4" ry="7.9"/>
    <path class="st1" d="M520.9 213.9c-2.2 0-4-3.5-4-7.9s1.8-7.9 4-7.9M88.8 541.1c4.6 1.6 9.4 2.5 14.2 3.1 18.7 2.5 37.8 2 56.4-1.5M187.8 548.6c24.4.9 48.9-2.9 70.9-13.4"/>
    <path class="st26" d="M213.7 226l2.4 23.8.1.1-2.5-23.9m-.9-8.2l.8 8.1h.1l-.8-8-.1-.1"/>
    <path class="st8" d="M213.6 225.9v.2l.1-.1v-.1h-.1"/>
    <path class="st27" d="M188.8 165.4l.1 5.4c.5 6.8.8 12.5.6 33-.1 15.2 5.7 29.8 17.9 38.8l8.7 7.2-2.5-23.8v-.2l-.8-8.1c-1.9-2.1-4-4.5-5.2-7.1-1-2.2-1.9-4.4-2.7-6.7-3-4.8-5-10.5-6.9-15.9-2.1-6-4.5-11.9-6.9-17.8-.7-1.5-1.5-3.2-2.3-4.8"/>
</svg>
